<svg xmlns="http://www.w3.org/2000/svg" viewBox="0 0 296.38 35.64"><title>Asset 1</title><g id="Layer_2" data-name="Layer 2"><g id="Layer_1-2" data-name="Layer 1"><path d="M140.08,23.49a3.53,3.53,0,0,0-1.27-2.39,4.15,4.15,0,0,0-2.62-.81,5.41,5.41,0,0,0-1.55.25,3.68,3.68,0,0,0-1.52.92A5.19,5.19,0,0,0,132,23.34a9,9,0,0,0-.46,3.15,9.23,9.23,0,0,0,.25,2.11,5.77,5.77,0,0,0,.79,1.88,4.27,4.27,0,0,0,1.4,1.34,4,4,0,0,0,2.08.51,3.79,3.79,0,0,0,2.72-1,4.76,4.76,0,0,0,1.34-2.87h3.76a8.26,8.26,0,0,1-2.52,5.1,7.7,7.7,0,0,1-5.3,1.77,8.73,8.73,0,0,1-3.55-.68,7.52,7.52,0,0,1-2.59-1.85,7.83,7.83,0,0,1-1.6-2.79,10.89,10.89,0,0,1-.54-3.5,11.93,11.93,0,0,1,.53-3.6A8.22,8.22,0,0,1,129.85,20,7.41,7.41,0,0,1,132.48,18a8.86,8.86,0,0,1,3.68-.71,10.3,10.3,0,0,1,2.82.38,7.43,7.43,0,0,1,2.38,1.14,6.05,6.05,0,0,1,1.7,1.91,6.54,6.54,0,0,1,.79,2.74Z"/><path d="M154.74,35.31a9.29,9.29,0,0,1-3.65-.68,7.77,7.77,0,0,1-2.71-1.86,8,8,0,0,1-1.68-2.84,11.58,11.58,0,0,1,0-7.23,8,8,0,0,1,1.68-2.84A7.78,7.78,0,0,1,151.09,18a10.17,10.17,0,0,1,7.29,0,7.79,7.79,0,0,1,2.71,1.86,8,8,0,0,1,1.68,2.84,11.58,11.58,0,0,1,0,7.23,8,8,0,0,1-1.68,2.84,7.78,7.78,0,0,1-2.71,1.86A9.3,9.3,0,0,1,154.74,35.31Zm0-3a4.31,4.31,0,0,0,2.18-.53,4.59,4.59,0,0,0,1.52-1.39,6,6,0,0,0,.87-1.93,8.67,8.67,0,0,0,0-4.37,5.83,5.83,0,0,0-.87-1.93,4.67,4.67,0,0,0-1.52-1.37,4.75,4.75,0,0,0-4.36,0A4.67,4.67,0,0,0,151,22.19a5.83,5.83,0,0,0-.87,1.93,8.67,8.67,0,0,0,0,4.37,6,6,0,0,0,.87,1.93,4.59,4.59,0,0,0,1.52,1.39A4.31,4.31,0,0,0,154.74,32.34Z"/><path d="M166.48,17.78H170v2.51l.07.07a6.31,6.31,0,0,1,2.24-2.23,6,6,0,0,1,3.07-.81,6.38,6.38,0,0,1,4.42,1.45,5.56,5.56,0,0,1,1.62,4.36V34.84H177.7V24.12a4.64,4.64,0,0,0-.86-2.92,3.12,3.12,0,0,0-2.47-.91,4.09,4.09,0,0,0-1.72.35,3.73,3.73,0,0,0-1.29,1,4.5,4.5,0,0,0-.82,1.44,5.12,5.12,0,0,0-.3,1.75V34.84h-3.76Z"/><path d="M183.74,17.78h2.81V16.36a7.29,7.29,0,0,1,.4-2.62A3.73,3.73,0,0,1,188,12.19a3.47,3.47,0,0,1,1.5-.73,8.38,8.38,0,0,1,1.77-.18,10.78,10.78,0,0,1,2.64.23v2.94a5.42,5.42,0,0,0-.78-.15,8.27,8.27,0,0,0-1,0,2.29,2.29,0,0,0-1.3.36,1.59,1.59,0,0,0-.54,1.42v1.75h3.2v2.81h-3.2V34.84h-3.76V20.59h-2.81Z"/><path d="M198.76,27.29A6.57,6.57,0,0,0,199,29.2a4.72,4.72,0,0,0,.84,1.62,4.05,4.05,0,0,0,1.42,1.11,4.68,4.68,0,0,0,2,.41,4.52,4.52,0,0,0,2.66-.71,4.2,4.2,0,0,0,1.5-2.13h3.56a7.08,7.08,0,0,1-2.77,4.31A7.53,7.53,0,0,1,206,34.93a9.26,9.26,0,0,1-2.66.38,9,9,0,0,1-3.56-.66,7.36,7.36,0,0,1-2.62-1.85A7.83,7.83,0,0,1,195.54,30a11.52,11.52,0,0,1-.54-3.63,10.28,10.28,0,0,1,.58-3.45A8.83,8.83,0,0,1,197.22,20a7.74,7.74,0,0,1,6-2.69,7.65,7.65,0,0,1,3.61.84,7.93,7.93,0,0,1,2.66,2.23A9,9,0,0,1,211,23.57a9.77,9.77,0,0,1,.25,3.71Zm8.78-2.48a6.07,6.07,0,0,0-.38-1.72,4.59,4.59,0,0,0-.86-1.44,4.26,4.26,0,0,0-1.32-1,3.89,3.89,0,0,0-1.73-.38,4.52,4.52,0,0,0-1.8.35,4.11,4.11,0,0,0-1.39,1,4.73,4.73,0,0,0-.92,1.44,5,5,0,0,0-.38,1.78Z"/><path d="M214.17,17.78h3.53v3.3h.07a3.79,3.79,0,0,1,.64-1.35,6.24,6.24,0,0,1,1.15-1.2,5.83,5.83,0,0,1,1.5-.87,4.5,4.5,0,0,1,1.68-.33,8.29,8.29,0,0,1,.91,0l.51.07v3.63l-.81-.12a6.84,6.84,0,0,0-.81,0,4.33,4.33,0,0,0-1.8.38,4.13,4.13,0,0,0-1.47,1.12,5.5,5.5,0,0,0-1,1.83,7.92,7.92,0,0,0-.36,2.51v8.12h-3.76Z"/><path d="M228.13,27.29a6.57,6.57,0,0,0,.28,1.91,4.72,4.72,0,0,0,.84,1.62,4.05,4.05,0,0,0,1.42,1.11,4.68,4.68,0,0,0,2,.41,4.52,4.52,0,0,0,2.66-.71,4.2,4.2,0,0,0,1.5-2.13h3.56a7.08,7.08,0,0,1-2.77,4.31,7.53,7.53,0,0,1-2.29,1.12,9.26,9.26,0,0,1-2.66.38,9,9,0,0,1-3.56-.66,7.36,7.36,0,0,1-2.62-1.85A7.83,7.83,0,0,1,224.91,30a11.52,11.52,0,0,1-.54-3.63,10.28,10.28,0,0,1,.58-3.45A8.83,8.83,0,0,1,226.59,20a7.74,7.74,0,0,1,6-2.69,7.65,7.65,0,0,1,3.61.84,7.93,7.93,0,0,1,2.66,2.23,9,9,0,0,1,1.54,3.18,9.77,9.77,0,0,1,.25,3.71Zm8.78-2.48a6.07,6.07,0,0,0-.38-1.72,4.59,4.59,0,0,0-.86-1.44,4.26,4.26,0,0,0-1.32-1,3.89,3.89,0,0,0-1.73-.38,4.52,4.52,0,0,0-1.8.35,4.11,4.11,0,0,0-1.39,1,4.73,4.73,0,0,0-.92,1.44,5,5,0,0,0-.38,1.78Z"/><path d="M243.54,17.78h3.56v2.51l.07.07a6.31,6.31,0,0,1,2.24-2.23,6,6,0,0,1,3.07-.81,6.38,6.38,0,0,1,4.42,1.45,5.56,5.56,0,0,1,1.62,4.36V34.84h-3.76V24.12a4.64,4.64,0,0,0-.86-2.92,3.12,3.12,0,0,0-2.47-.91,4.09,4.09,0,0,0-1.72.35,3.73,3.73,0,0,0-1.29,1A4.5,4.5,0,0,0,247.6,23a5.12,5.12,0,0,0-.3,1.75V34.84h-3.76Z"/><path d="M274,23.49a3.53,3.53,0,0,0-1.27-2.39,4.15,4.15,0,0,0-2.62-.81,5.41,5.41,0,0,0-1.55.25,3.68,3.68,0,0,0-1.52.92,5.19,5.19,0,0,0-1.16,1.88,9,9,0,0,0-.46,3.15,9.23,9.23,0,0,0,.25,2.11,5.77,5.77,0,0,0,.79,1.88,4.27,4.27,0,0,0,1.4,1.34,4,4,0,0,0,2.08.51,3.79,3.79,0,0,0,2.72-1A4.76,4.76,0,0,0,274,28.44h3.76a8.26,8.26,0,0,1-2.52,5.1,7.7,7.7,0,0,1-5.3,1.77,8.73,8.73,0,0,1-3.55-.68,7.52,7.52,0,0,1-2.59-1.85A7.83,7.83,0,0,1,262.2,30a10.89,10.89,0,0,1-.54-3.5,11.93,11.93,0,0,1,.53-3.6A8.22,8.22,0,0,1,263.77,20,7.41,7.41,0,0,1,266.39,18a8.86,8.86,0,0,1,3.68-.71,10.3,10.3,0,0,1,2.82.38,7.43,7.43,0,0,1,2.38,1.14,6.05,6.05,0,0,1,1.7,1.91,6.54,6.54,0,0,1,.79,2.74Z"/><path d="M283.77,27.29A6.53,6.53,0,0,0,284,29.2a4.69,4.69,0,0,0,.84,1.62,4,4,0,0,0,1.42,1.11,4.67,4.67,0,0,0,2,.41,4.52,4.52,0,0,0,2.66-.71,4.2,4.2,0,0,0,1.5-2.13h3.56a7.07,7.07,0,0,1-2.77,4.31A7.55,7.55,0,0,1,291,34.93a9.25,9.25,0,0,1-2.66.38,9,9,0,0,1-3.56-.66,7.36,7.36,0,0,1-2.62-1.85A7.85,7.85,0,0,1,280.55,30a11.52,11.52,0,0,1-.54-3.63,10.25,10.25,0,0,1,.58-3.45A8.83,8.83,0,0,1,282.23,20a7.74,7.74,0,0,1,6-2.69,7.65,7.65,0,0,1,3.61.84,7.94,7.94,0,0,1,2.66,2.23,9,9,0,0,1,1.53,3.18,9.77,9.77,0,0,1,.25,3.71Zm8.78-2.48a6.07,6.07,0,0,0-.38-1.72,4.59,4.59,0,0,0-.86-1.44,4.24,4.24,0,0,0-1.32-1,3.89,3.89,0,0,0-1.73-.38,4.52,4.52,0,0,0-1.8.35,4.1,4.1,0,0,0-1.39,1,4.74,4.74,0,0,0-.92,1.44,5,5,0,0,0-.38,1.78Z"/><path d="M22.41,11.51H32.8a9.88,9.88,0,0,1,4.09.73,6.46,6.46,0,0,1,2.44,1.81,6.17,6.17,0,0,1,1.17,2.38,10.09,10.09,0,0,1,.31,2.38,9.89,9.89,0,0,1-.31,2.36,6.18,6.18,0,0,1-1.17,2.36,6.33,6.33,0,0,1-2.44,1.8A10.08,10.08,0,0,1,32.8,26H26.53v9H22.41Zm4.13,11.15h6a5.38,5.38,0,0,0,1.42-.2,4.06,4.06,0,0,0,1.34-.64,3.29,3.29,0,0,0,1-1.19,4.09,4.09,0,0,0,.38-1.86,4.83,4.83,0,0,0-.33-1.91,3.05,3.05,0,0,0-.89-1.2A3.17,3.17,0,0,0,34.19,15a7,7,0,0,0-1.55-.17H26.53Z"/><path d="M56.1,11a11,11,0,0,1,4.74,1,10.61,10.61,0,0,1,3.55,2.67,11.88,11.88,0,0,1,2.23,3.93,15,15,0,0,1,0,9.54A11.87,11.87,0,0,1,64.38,32a10.42,10.42,0,0,1-3.55,2.66,12,12,0,0,1-9.47,0A10.4,10.4,0,0,1,47.82,32a11.86,11.86,0,0,1-2.23-3.93,15.05,15.05,0,0,1,0-9.54,11.87,11.87,0,0,1,2.23-3.93,10.59,10.59,0,0,1,3.55-2.67A11,11,0,0,1,56.1,11Zm0,3.37a6.61,6.61,0,0,0-3.25.76,6.38,6.38,0,0,0-2.23,2A9.16,9.16,0,0,0,49.35,20a13.42,13.42,0,0,0,0,6.6,9.15,9.15,0,0,0,1.27,2.89,6.37,6.37,0,0,0,2.23,2,7.34,7.34,0,0,0,6.5,0,6.37,6.37,0,0,0,2.23-2,9.15,9.15,0,0,0,1.27-2.89,13.39,13.39,0,0,0,0-6.6,9.16,9.16,0,0,0-1.27-2.89,6.38,6.38,0,0,0-2.23-2A6.6,6.6,0,0,0,56.1,14.32Z"/><path d="M75.5,27.22A5.26,5.26,0,0,0,76,29.53a4.16,4.16,0,0,0,1.29,1.57,5.48,5.48,0,0,0,1.9.89,9.17,9.17,0,0,0,2.33.28A7.46,7.46,0,0,0,83.79,32a4.68,4.68,0,0,0,1.55-.81A2.93,2.93,0,0,0,86.2,30a3.39,3.39,0,0,0,.26-1.3,2.82,2.82,0,0,0-.61-2,3.5,3.5,0,0,0-1.34-.91,28,28,0,0,0-2.92-.87q-1.67-.41-4.11-1.07a8.81,8.81,0,0,1-2.52-1,6,6,0,0,1-1.6-1.44,5.05,5.05,0,0,1-.84-1.68,6.75,6.75,0,0,1-.25-1.81A6.13,6.13,0,0,1,73,14.8a6.6,6.6,0,0,1,2-2.16,8.64,8.64,0,0,1,2.77-1.27A12.15,12.15,0,0,1,80.88,11a12.33,12.33,0,0,1,3.48.48,8.6,8.6,0,0,1,2.87,1.44,6.81,6.81,0,0,1,2.69,5.61H85.8a4,4,0,0,0-1.55-3.22,6.16,6.16,0,0,0-3.53-.94,7.71,7.71,0,0,0-1.49.15,4.71,4.71,0,0,0-1.39.5,3,3,0,0,0-1,.94,2.54,2.54,0,0,0-.41,1.48,2.53,2.53,0,0,0,.78,2,5,5,0,0,0,2,1.07l1,.28,2,.54,2.19.58,1.54.41a6.9,6.9,0,0,1,2,1,6.35,6.35,0,0,1,1.44,1.44,6,6,0,0,1,.86,1.73,6.35,6.35,0,0,1,.28,1.85,6.66,6.66,0,0,1-.81,3.38,6.86,6.86,0,0,1-2.13,2.29,9.25,9.25,0,0,1-3,1.3,14.37,14.37,0,0,1-3.43.41,14.12,14.12,0,0,1-3.79-.5,8.88,8.88,0,0,1-3.1-1.52A7.41,7.41,0,0,1,72.2,31a8.72,8.72,0,0,1-.83-3.78Z"/><path d="M95.83,11.51h17v3.56H100v6.17h11.88v3.37H100v6.9H113v3.56H95.83Z"/><rect width="90.58" height="3.62"/><rect x="95.65" width="17.37" height="3.62"/></g></g></svg>