<svg xmlns="http://www.w3.org/2000/svg" viewBox="0 0 113.03 35.64"><title>Asset 2</title><g id="Layer_2" data-name="Layer 2"><g id="Layer_1-2" data-name="Layer 1"><path d="M22.41,11.51H32.8a9.88,9.88,0,0,1,4.09.73,6.46,6.46,0,0,1,2.44,1.81,6.17,6.17,0,0,1,1.17,2.38,10.09,10.09,0,0,1,.31,2.38,9.89,9.89,0,0,1-.31,2.36,6.18,6.18,0,0,1-1.17,2.36,6.33,6.33,0,0,1-2.44,1.8A10.08,10.08,0,0,1,32.8,26H26.53v9H22.41Zm4.13,11.15h6a5.38,5.38,0,0,0,1.42-.2,4.06,4.06,0,0,0,1.34-.64,3.29,3.29,0,0,0,1-1.19,4.09,4.09,0,0,0,.38-1.86,4.83,4.83,0,0,0-.33-1.91,3.05,3.05,0,0,0-.89-1.2A3.17,3.17,0,0,0,34.19,15a7,7,0,0,0-1.55-.17H26.53Z"/><path d="M56.1,11a11,11,0,0,1,4.74,1,10.61,10.61,0,0,1,3.55,2.67,11.88,11.88,0,0,1,2.23,3.93,15,15,0,0,1,0,9.54A11.87,11.87,0,0,1,64.38,32a10.42,10.42,0,0,1-3.55,2.66,12,12,0,0,1-9.47,0A10.4,10.4,0,0,1,47.82,32a11.86,11.86,0,0,1-2.23-3.93,15.05,15.05,0,0,1,0-9.54,11.87,11.87,0,0,1,2.23-3.93,10.59,10.59,0,0,1,3.55-2.67A11,11,0,0,1,56.1,11Zm0,3.37a6.61,6.61,0,0,0-3.25.76,6.38,6.38,0,0,0-2.23,2A9.16,9.16,0,0,0,49.35,20a13.42,13.42,0,0,0,0,6.6,9.15,9.15,0,0,0,1.27,2.89,6.37,6.37,0,0,0,2.23,2,7.34,7.34,0,0,0,6.5,0,6.37,6.37,0,0,0,2.23-2,9.15,9.15,0,0,0,1.27-2.89,13.39,13.39,0,0,0,0-6.6,9.16,9.16,0,0,0-1.27-2.89,6.38,6.38,0,0,0-2.23-2A6.6,6.6,0,0,0,56.1,14.32Z"/><path d="M75.5,27.22A5.26,5.26,0,0,0,76,29.53a4.16,4.16,0,0,0,1.29,1.57,5.48,5.48,0,0,0,1.9.89,9.17,9.17,0,0,0,2.33.28A7.46,7.46,0,0,0,83.79,32a4.68,4.68,0,0,0,1.55-.81A2.93,2.93,0,0,0,86.2,30a3.39,3.39,0,0,0,.26-1.3,2.82,2.82,0,0,0-.61-2,3.5,3.5,0,0,0-1.34-.91,28,28,0,0,0-2.92-.87q-1.67-.41-4.11-1.07a8.81,8.81,0,0,1-2.52-1,6,6,0,0,1-1.6-1.44,5.05,5.05,0,0,1-.84-1.68,6.75,6.75,0,0,1-.25-1.81A6.13,6.13,0,0,1,73,14.8a6.6,6.6,0,0,1,2-2.16,8.64,8.64,0,0,1,2.77-1.27A12.15,12.15,0,0,1,80.88,11a12.33,12.33,0,0,1,3.48.48,8.6,8.6,0,0,1,2.87,1.44,6.81,6.81,0,0,1,2.69,5.61H85.8a4,4,0,0,0-1.55-3.22,6.16,6.16,0,0,0-3.53-.94,7.71,7.71,0,0,0-1.49.15,4.71,4.71,0,0,0-1.39.5,3,3,0,0,0-1,.94,2.54,2.54,0,0,0-.41,1.48,2.53,2.53,0,0,0,.78,2,5,5,0,0,0,2,1.07l1,.28,2,.54,2.19.58,1.54.41a6.9,6.9,0,0,1,2,1,6.35,6.35,0,0,1,1.44,1.44,6,6,0,0,1,.86,1.73,6.35,6.35,0,0,1,.28,1.85,6.66,6.66,0,0,1-.81,3.38,6.86,6.86,0,0,1-2.13,2.29,9.25,9.25,0,0,1-3,1.3,14.37,14.37,0,0,1-3.43.41,14.12,14.12,0,0,1-3.79-.5,8.88,8.88,0,0,1-3.1-1.52A7.41,7.41,0,0,1,72.2,31a8.72,8.72,0,0,1-.83-3.78Z"/><path d="M95.83,11.51h17v3.56H100v6.17h11.88v3.37H100v6.9H113v3.56H95.83Z"/><rect width="90.58" height="3.62"/><rect x="95.65" width="17.37" height="3.62"/></g></g></svg>