<svg xmlns="http://www.w3.org/2000/svg" viewBox="0 0 273.97 24.68"><title>Asset 4</title><g id="Layer_2" data-name="Layer 2"><g id="Layer_1-2" data-name="Layer 1"><path d="M117.68,12.54a3.53,3.53,0,0,0-1.27-2.39,4.15,4.15,0,0,0-2.62-.81,5.41,5.41,0,0,0-1.55.25,3.68,3.68,0,0,0-1.52.92,5.19,5.19,0,0,0-1.16,1.88,9,9,0,0,0-.46,3.15,9.23,9.23,0,0,0,.25,2.11,5.77,5.77,0,0,0,.79,1.88,4.27,4.27,0,0,0,1.4,1.34,4,4,0,0,0,2.08.51,3.79,3.79,0,0,0,2.72-1,4.76,4.76,0,0,0,1.34-2.87h3.76a8.26,8.26,0,0,1-2.52,5.1,7.7,7.7,0,0,1-5.3,1.77,8.73,8.73,0,0,1-3.55-.68,7.52,7.52,0,0,1-2.59-1.85,7.83,7.83,0,0,1-1.6-2.79,10.89,10.89,0,0,1-.54-3.5,11.93,11.93,0,0,1,.53-3.6A8.22,8.22,0,0,1,107.45,9a7.41,7.41,0,0,1,2.62-1.95,8.86,8.86,0,0,1,3.68-.71,10.3,10.3,0,0,1,2.82.38,7.43,7.43,0,0,1,2.38,1.14,6.05,6.05,0,0,1,1.7,1.91,6.54,6.54,0,0,1,.79,2.74Z"/><path d="M132.33,24.35a9.29,9.29,0,0,1-3.65-.68A7.77,7.77,0,0,1,126,21.81,8,8,0,0,1,124.29,19a10.9,10.9,0,0,1-.58-3.63,10.8,10.8,0,0,1,.58-3.6A8,8,0,0,1,126,8.91,7.78,7.78,0,0,1,128.68,7,10.17,10.17,0,0,1,136,7a7.79,7.79,0,0,1,2.71,1.86,8,8,0,0,1,1.68,2.84,10.83,10.83,0,0,1,.58,3.6,10.93,10.93,0,0,1-.58,3.63,8,8,0,0,1-1.68,2.84A7.78,7.78,0,0,1,136,23.68,9.3,9.3,0,0,1,132.33,24.35Zm0-3a4.31,4.31,0,0,0,2.18-.53A4.59,4.59,0,0,0,136,19.47a6,6,0,0,0,.87-1.93,8.67,8.67,0,0,0,0-4.37,5.83,5.83,0,0,0-.87-1.93,4.67,4.67,0,0,0-1.52-1.37,4.75,4.75,0,0,0-4.36,0,4.67,4.67,0,0,0-1.52,1.37,5.83,5.83,0,0,0-.87,1.93,8.67,8.67,0,0,0,0,4.37,6,6,0,0,0,.87,1.93,4.59,4.59,0,0,0,1.52,1.39A4.31,4.31,0,0,0,132.33,21.38Z"/><path d="M144.08,6.83h3.56V9.34l.07.07A6.31,6.31,0,0,1,150,7.18,6,6,0,0,1,153,6.37a6.38,6.38,0,0,1,4.42,1.45,5.56,5.56,0,0,1,1.62,4.36V23.89H155.3V13.17a4.64,4.64,0,0,0-.86-2.92A3.12,3.12,0,0,0,152,9.34a4.09,4.09,0,0,0-1.72.35,3.73,3.73,0,0,0-1.29,1,4.5,4.5,0,0,0-.82,1.44,5.12,5.12,0,0,0-.3,1.75V23.89h-3.76Z"/><path d="M161.33,6.83h2.81V5.41a7.29,7.29,0,0,1,.4-2.62,3.73,3.73,0,0,1,1.06-1.55,3.47,3.47,0,0,1,1.5-.73,8.38,8.38,0,0,1,1.77-.18,10.78,10.78,0,0,1,2.64.23V3.5a5.42,5.42,0,0,0-.78-.15,8.27,8.27,0,0,0-1,0,2.29,2.29,0,0,0-1.3.36,1.59,1.59,0,0,0-.54,1.42V6.83h3.2V9.64h-3.2V23.89h-3.76V9.64h-2.81Z"/><path d="M176.35,16.33a6.57,6.57,0,0,0,.28,1.91,4.72,4.72,0,0,0,.84,1.62A4.05,4.05,0,0,0,178.89,21a4.68,4.68,0,0,0,2,.41,4.52,4.52,0,0,0,2.66-.71,4.2,4.2,0,0,0,1.5-2.13h3.56a7.08,7.08,0,0,1-2.77,4.31A7.53,7.53,0,0,1,183.59,24a9.26,9.26,0,0,1-2.66.38,9,9,0,0,1-3.56-.66,7.36,7.36,0,0,1-2.62-1.85A7.83,7.83,0,0,1,173.13,19a11.52,11.52,0,0,1-.54-3.63,10.28,10.28,0,0,1,.58-3.45,8.83,8.83,0,0,1,1.65-2.87,7.74,7.74,0,0,1,6-2.69,7.65,7.65,0,0,1,3.61.84,7.93,7.93,0,0,1,2.66,2.23,9,9,0,0,1,1.54,3.18,9.77,9.77,0,0,1,.25,3.71Zm8.78-2.48a6.07,6.07,0,0,0-.38-1.72,4.59,4.59,0,0,0-.86-1.44,4.26,4.26,0,0,0-1.32-1,3.89,3.89,0,0,0-1.73-.38,4.52,4.52,0,0,0-1.8.35,4.11,4.11,0,0,0-1.39,1,4.73,4.73,0,0,0-.92,1.44,5,5,0,0,0-.38,1.78Z"/><path d="M191.76,6.83h3.53v3.3h.07A3.79,3.79,0,0,1,196,8.78a6.24,6.24,0,0,1,1.15-1.2,5.83,5.83,0,0,1,1.5-.87,4.5,4.5,0,0,1,1.68-.33,8.29,8.29,0,0,1,.91,0l.51.07V10.1L201,10a6.84,6.84,0,0,0-.81,0,4.33,4.33,0,0,0-1.8.38,4.13,4.13,0,0,0-1.47,1.12,5.5,5.5,0,0,0-1,1.83,7.92,7.92,0,0,0-.36,2.51v8.12h-3.76Z"/><path d="M205.72,16.33a6.57,6.57,0,0,0,.28,1.91,4.72,4.72,0,0,0,.84,1.62A4.05,4.05,0,0,0,208.26,21a4.68,4.68,0,0,0,2,.41,4.52,4.52,0,0,0,2.66-.71,4.2,4.2,0,0,0,1.5-2.13H218a7.08,7.08,0,0,1-2.77,4.31A7.53,7.53,0,0,1,213,24a9.26,9.26,0,0,1-2.66.38,9,9,0,0,1-3.56-.66,7.36,7.36,0,0,1-2.62-1.85A7.83,7.83,0,0,1,202.5,19a11.52,11.52,0,0,1-.54-3.63,10.28,10.28,0,0,1,.58-3.45,8.83,8.83,0,0,1,1.65-2.87,7.74,7.74,0,0,1,6-2.69,7.65,7.65,0,0,1,3.61.84,7.93,7.93,0,0,1,2.66,2.23A9,9,0,0,1,218,12.62a9.77,9.77,0,0,1,.25,3.71Zm8.78-2.48a6.07,6.07,0,0,0-.38-1.72,4.59,4.59,0,0,0-.86-1.44,4.26,4.26,0,0,0-1.32-1,3.89,3.89,0,0,0-1.73-.38,4.52,4.52,0,0,0-1.8.35,4.11,4.11,0,0,0-1.39,1,4.73,4.73,0,0,0-.92,1.44,5,5,0,0,0-.38,1.78Z"/><path d="M221.13,6.83h3.56V9.34l.07.07A6.31,6.31,0,0,1,227,7.18a6,6,0,0,1,3.07-.81,6.38,6.38,0,0,1,4.42,1.45,5.56,5.56,0,0,1,1.62,4.36V23.89h-3.76V13.17a4.64,4.64,0,0,0-.86-2.92A3.12,3.12,0,0,0,229,9.34a4.09,4.09,0,0,0-1.72.35,3.73,3.73,0,0,0-1.29,1,4.5,4.5,0,0,0-.82,1.44,5.12,5.12,0,0,0-.3,1.75V23.89h-3.76Z"/><path d="M251.59,12.54a3.53,3.53,0,0,0-1.27-2.39,4.15,4.15,0,0,0-2.62-.81,5.41,5.41,0,0,0-1.55.25,3.68,3.68,0,0,0-1.52.92,5.19,5.19,0,0,0-1.16,1.88,9,9,0,0,0-.46,3.15,9.23,9.23,0,0,0,.25,2.11,5.77,5.77,0,0,0,.79,1.88,4.27,4.27,0,0,0,1.4,1.34,4,4,0,0,0,2.08.51,3.79,3.79,0,0,0,2.72-1,4.76,4.76,0,0,0,1.34-2.87h3.76a8.26,8.26,0,0,1-2.52,5.1,7.7,7.7,0,0,1-5.3,1.77,8.73,8.73,0,0,1-3.55-.68,7.52,7.52,0,0,1-2.59-1.85,7.83,7.83,0,0,1-1.6-2.79,10.89,10.89,0,0,1-.54-3.5,11.93,11.93,0,0,1,.53-3.6A8.22,8.22,0,0,1,241.36,9,7.41,7.41,0,0,1,244,7.08a8.86,8.86,0,0,1,3.68-.71,10.3,10.3,0,0,1,2.82.38,7.43,7.43,0,0,1,2.38,1.14,6.05,6.05,0,0,1,1.7,1.91,6.54,6.54,0,0,1,.79,2.74Z"/><path d="M261.36,16.33a6.53,6.53,0,0,0,.28,1.91,4.69,4.69,0,0,0,.84,1.62A4,4,0,0,0,263.9,21a4.67,4.67,0,0,0,2,.41,4.52,4.52,0,0,0,2.66-.71,4.2,4.2,0,0,0,1.5-2.13h3.56a7.07,7.07,0,0,1-2.77,4.31A7.55,7.55,0,0,1,268.6,24a9.25,9.25,0,0,1-2.66.38,9,9,0,0,1-3.56-.66,7.36,7.36,0,0,1-2.62-1.85A7.85,7.85,0,0,1,258.14,19a11.52,11.52,0,0,1-.54-3.63,10.25,10.25,0,0,1,.58-3.45,8.83,8.83,0,0,1,1.65-2.87,7.74,7.74,0,0,1,6-2.69,7.65,7.65,0,0,1,3.61.84,7.94,7.94,0,0,1,2.66,2.23,9,9,0,0,1,1.53,3.18,9.77,9.77,0,0,1,.25,3.71Zm8.78-2.48a6.07,6.07,0,0,0-.38-1.72,4.59,4.59,0,0,0-.86-1.44,4.24,4.24,0,0,0-1.32-1,3.89,3.89,0,0,0-1.73-.38,4.52,4.52,0,0,0-1.8.35,4.1,4.1,0,0,0-1.39,1,4.74,4.74,0,0,0-.92,1.44,5,5,0,0,0-.38,1.78Z"/><path d="M0,.56H10.4a9.88,9.88,0,0,1,4.09.73A6.46,6.46,0,0,1,16.93,3.1,6.17,6.17,0,0,1,18.1,5.48a10.09,10.09,0,0,1,.31,2.38,9.89,9.89,0,0,1-.31,2.36,6.18,6.18,0,0,1-1.17,2.36,6.33,6.33,0,0,1-2.44,1.8,10.08,10.08,0,0,1-4.09.71H4.13v9H0ZM4.13,11.71h6a5.38,5.38,0,0,0,1.42-.2,4.06,4.06,0,0,0,1.34-.64,3.29,3.29,0,0,0,1-1.19,4.09,4.09,0,0,0,.38-1.86A4.83,4.83,0,0,0,14,5.91a3.05,3.05,0,0,0-.89-1.2,3.17,3.17,0,0,0-1.29-.61,7,7,0,0,0-1.55-.17H4.13Z"/><path d="M33.69,0a11,11,0,0,1,4.74,1A10.61,10.61,0,0,1,42,3.66,11.88,11.88,0,0,1,44.2,7.59,14.44,14.44,0,0,1,45,12.34a14.53,14.53,0,0,1-.78,4.78A11.87,11.87,0,0,1,42,21.05a10.42,10.42,0,0,1-3.55,2.66,11.11,11.11,0,0,1-4.74,1,11.11,11.11,0,0,1-4.74-1,10.4,10.4,0,0,1-3.55-2.66,11.86,11.86,0,0,1-2.23-3.93,14.53,14.53,0,0,1-.78-4.78,14.44,14.44,0,0,1,.78-4.75,11.87,11.87,0,0,1,2.23-3.93A10.59,10.59,0,0,1,29,1,11,11,0,0,1,33.69,0Zm0,3.37a6.61,6.61,0,0,0-3.25.76,6.38,6.38,0,0,0-2.23,2A9.16,9.16,0,0,0,26.94,9a13.42,13.42,0,0,0,0,6.6,9.15,9.15,0,0,0,1.27,2.89,6.37,6.37,0,0,0,2.23,2,6.6,6.6,0,0,0,3.25.76,6.6,6.6,0,0,0,3.25-.76,6.37,6.37,0,0,0,2.23-2,9.15,9.15,0,0,0,1.27-2.89,13.39,13.39,0,0,0,0-6.6,9.16,9.16,0,0,0-1.27-2.89,6.38,6.38,0,0,0-2.23-2A6.6,6.6,0,0,0,33.69,3.37Z"/><path d="M53.1,16.27a5.26,5.26,0,0,0,.46,2.31,4.16,4.16,0,0,0,1.29,1.57,5.48,5.48,0,0,0,1.9.89,9.17,9.17,0,0,0,2.33.28A7.46,7.46,0,0,0,61.38,21a4.68,4.68,0,0,0,1.55-.81,2.93,2.93,0,0,0,.86-1.14,3.39,3.39,0,0,0,.26-1.3,2.82,2.82,0,0,0-.61-2,3.5,3.5,0,0,0-1.34-.91A28,28,0,0,0,59.19,14q-1.67-.41-4.11-1.07a8.81,8.81,0,0,1-2.52-1A6,6,0,0,1,51,10.43a5.05,5.05,0,0,1-.84-1.68,6.75,6.75,0,0,1-.25-1.81,6.13,6.13,0,0,1,.74-3.09,6.6,6.6,0,0,1,2-2.16A8.64,8.64,0,0,1,55.34.41,12.15,12.15,0,0,1,58.48,0,12.33,12.33,0,0,1,62,.48a8.6,8.6,0,0,1,2.87,1.44,7,7,0,0,1,2,2.36,7,7,0,0,1,.73,3.25H63.39a4,4,0,0,0-1.55-3.22,6.16,6.16,0,0,0-3.53-.94,7.71,7.71,0,0,0-1.49.15,4.71,4.71,0,0,0-1.39.5,3,3,0,0,0-1,.94A2.54,2.54,0,0,0,54,6.44a2.53,2.53,0,0,0,.78,2,5,5,0,0,0,2,1.07l1,.28,2,.54,2.19.58,1.54.41a6.9,6.9,0,0,1,2,1A6.35,6.35,0,0,1,67,13.71a6,6,0,0,1,.86,1.73,6.35,6.35,0,0,1,.28,1.85,6.66,6.66,0,0,1-.81,3.38A6.86,6.86,0,0,1,65.24,23a9.25,9.25,0,0,1-3,1.3,14.37,14.37,0,0,1-3.43.41,14.12,14.12,0,0,1-3.79-.5,8.88,8.88,0,0,1-3.1-1.52A7.41,7.41,0,0,1,49.8,20,8.72,8.72,0,0,1,49,16.27Z"/><path d="M73.42.56h17V4.13H77.55V10.3H89.43v3.37H77.55v6.9H90.62v3.56H73.42Z"/></g></g></svg>