<svg xmlns="http://www.w3.org/2000/svg" viewBox="0 0 90.62 24.68"><title>Asset 3</title><g id="Layer_2" data-name="Layer 2"><g id="Layer_1-2" data-name="Layer 1"><path d="M0,.56H10.4a9.88,9.88,0,0,1,4.09.73A6.46,6.46,0,0,1,16.93,3.1,6.17,6.17,0,0,1,18.1,5.48a10.09,10.09,0,0,1,.31,2.38,9.89,9.89,0,0,1-.31,2.36,6.18,6.18,0,0,1-1.17,2.36,6.33,6.33,0,0,1-2.44,1.8,10.08,10.08,0,0,1-4.09.71H4.13v9H0ZM4.13,11.71h6a5.38,5.38,0,0,0,1.42-.2,4.06,4.06,0,0,0,1.34-.64,3.29,3.29,0,0,0,1-1.19,4.09,4.09,0,0,0,.38-1.86A4.83,4.83,0,0,0,14,5.91a3.05,3.05,0,0,0-.89-1.2,3.17,3.17,0,0,0-1.29-.61,7,7,0,0,0-1.55-.17H4.13Z"/><path d="M33.69,0a11,11,0,0,1,4.74,1A10.61,10.61,0,0,1,42,3.66,11.88,11.88,0,0,1,44.2,7.59,14.44,14.44,0,0,1,45,12.34a14.53,14.53,0,0,1-.78,4.78A11.87,11.87,0,0,1,42,21.05a10.42,10.42,0,0,1-3.55,2.66,11.11,11.11,0,0,1-4.74,1,11.11,11.11,0,0,1-4.74-1,10.4,10.4,0,0,1-3.55-2.66,11.86,11.86,0,0,1-2.23-3.93,14.53,14.53,0,0,1-.78-4.78,14.44,14.44,0,0,1,.78-4.75,11.87,11.87,0,0,1,2.23-3.93A10.59,10.59,0,0,1,29,1,11,11,0,0,1,33.69,0Zm0,3.37a6.61,6.61,0,0,0-3.25.76,6.38,6.38,0,0,0-2.23,2A9.16,9.16,0,0,0,26.94,9a13.42,13.42,0,0,0,0,6.6,9.15,9.15,0,0,0,1.27,2.89,6.37,6.37,0,0,0,2.23,2,6.6,6.6,0,0,0,3.25.76,6.6,6.6,0,0,0,3.25-.76,6.37,6.37,0,0,0,2.23-2,9.15,9.15,0,0,0,1.27-2.89,13.39,13.39,0,0,0,0-6.6,9.16,9.16,0,0,0-1.27-2.89,6.38,6.38,0,0,0-2.23-2A6.6,6.6,0,0,0,33.69,3.37Z"/><path d="M53.1,16.27a5.26,5.26,0,0,0,.46,2.31,4.16,4.16,0,0,0,1.29,1.57,5.48,5.48,0,0,0,1.9.89,9.17,9.17,0,0,0,2.33.28A7.46,7.46,0,0,0,61.38,21a4.68,4.68,0,0,0,1.55-.81,2.93,2.93,0,0,0,.86-1.14,3.39,3.39,0,0,0,.26-1.3,2.82,2.82,0,0,0-.61-2,3.5,3.5,0,0,0-1.34-.91A28,28,0,0,0,59.19,14q-1.67-.41-4.11-1.07a8.81,8.81,0,0,1-2.52-1A6,6,0,0,1,51,10.43a5.05,5.05,0,0,1-.84-1.68,6.75,6.75,0,0,1-.25-1.81,6.13,6.13,0,0,1,.74-3.09,6.6,6.6,0,0,1,2-2.16A8.64,8.64,0,0,1,55.34.41,12.15,12.15,0,0,1,58.48,0,12.33,12.33,0,0,1,62,.48a8.6,8.6,0,0,1,2.87,1.44,7,7,0,0,1,2,2.36,7,7,0,0,1,.73,3.25H63.39a4,4,0,0,0-1.55-3.22,6.16,6.16,0,0,0-3.53-.94,7.71,7.71,0,0,0-1.49.15,4.71,4.71,0,0,0-1.39.5,3,3,0,0,0-1,.94A2.54,2.54,0,0,0,54,6.44a2.53,2.53,0,0,0,.78,2,5,5,0,0,0,2,1.07l1,.28,2,.54,2.19.58,1.54.41a6.9,6.9,0,0,1,2,1A6.35,6.35,0,0,1,67,13.71a6,6,0,0,1,.86,1.73,6.35,6.35,0,0,1,.28,1.85,6.66,6.66,0,0,1-.81,3.38A6.86,6.86,0,0,1,65.24,23a9.25,9.25,0,0,1-3,1.3,14.37,14.37,0,0,1-3.43.41,14.12,14.12,0,0,1-3.79-.5,8.88,8.88,0,0,1-3.1-1.52A7.41,7.41,0,0,1,49.8,20,8.72,8.72,0,0,1,49,16.27Z"/><path d="M73.42.56h17V4.13H77.55V10.3H89.43v3.37H77.55v6.9H90.62v3.56H73.42Z"/></g></g></svg>