<svg xmlns="http://www.w3.org/2000/svg" viewBox="0 0 498.35 203.62"><title>Asset 1</title><g id="Layer_2" data-name="Layer 2"><g id="Layer_1-2" data-name="Layer 1"><path d="M274.94,0c9.2,0,18.39,0,27.59,0a16.75,16.75,0,0,1,5.34.88c1,.36,2.41,1.54,2.44,2.4,0,1.19-.71,3-1.67,3.51a21,21,0,0,1-7.77,2.58c-6.8.42-11.7,3.42-15,9.29-1.28,2.28-2.73,4.47-3.92,6.79a13.6,13.6,0,0,0-1.38,4.24,2.94,2.94,0,0,0,2.77,3.68,24,24,0,0,1,4.91.75c1.12.4,2.63,1.45,2.76,2.38.15,1.11-.68,3.07-1.61,3.49a29.67,29.67,0,0,1-9,2.8,16.7,16.7,0,0,0-13.57,8.74c-5.76,9.85-11.43,19.75-17.14,29.62q-33.47,57.92-67,115.84a22.09,22.09,0,0,1-3,4.25c-2.73,2.85-5.3,2.5-7.29-.87q-7.83-13.31-15.61-26.66c-1.84-3.15-3.5-6.42-5.54-9.42a12.54,12.54,0,0,1-.88-13.31c3.09-6.24,6.66-12.24,10.14-18.27Q177.27,103.8,194,74.92,213,42.22,231.9,9.52C235.63,3.1,241.28-.07,248.77,0,257.49.08,266.22,0,274.94,0Z"/><path d="M386.33.66a3.94,3.94,0,0,1,2.06.42c1.1.73,2.51,1.49,2.95,2.58.68,1.72-.66,3.14-2.15,3.76A24.05,24.05,0,0,1,382,9.59a18,18,0,0,0-15.34,9.7c-1.47,2.62-3.13,5.16-4.37,7.89-2,4.32-.57,6.48,4.08,6.8a8.55,8.55,0,0,1,3.23.55c1,.52,2.41,1.5,2.49,2.39a4,4,0,0,1-1.6,3.34c-2.43,1.22-5.09,2.47-7.73,2.65-7.09.47-12,3.81-15.45,9.85Q316.41,106.39,285.4,160q-11.12,19.24-22.3,38.43a14.9,14.9,0,0,1-3.32,4c-2.41,2-4.16,1.65-5.86-1-2.16-3.41-4.14-6.93-6.18-10.42-5.4-9.23-10.76-18.49-16.19-27.69a11.67,11.67,0,0,1-.17-11.63c3.21-6.44,6.83-12.68,10.44-18.91q32.87-56.89,65.82-113.74c1.79-3.08,3.55-6.18,5.37-9.24,3.61-6.07,8.93-9.24,16-9.25C338.15.41,376.35.64,386.33.66Z"/><path d="M63.93,147.7H7.58c-7.63,0-9.47-3.1-5.66-9.77,6.12-10.73,12.24-21.47,18.6-32.06,3.47-5.77,8.54-9.06,15.65-9,18.15.13,36.3,0,54.45.07a16.3,16.3,0,0,0,14.65-8.13c3.38-5.35,6.41-10.93,9.48-16.47,1.11-2,2.27-4.39.5-6.45s-4.46-1.46-6.69-.76a17.34,17.34,0,0,0-9.87,8.11c-1.41,2.39-2.75,4.82-4.2,7.18-3.73,6.07-9,9.26-16.31,9.2-12.52-.1-25,0-37.57-.05a19.18,19.18,0,0,1-3.52-.45,3.66,3.66,0,0,1-3.18-4.3,12.46,12.46,0,0,1,1.51-4.68c3.13-5.6,6.31-11.18,9.68-16.63A16.48,16.48,0,0,1,59.73,55.2q56.95-.09,113.9,0l.71,0c5.24.32,7.18,3.24,4.91,8-2,4.21-4.46,8.21-6.8,12.25q-18.1,31.25-36.24,62.48c-3.77,6.52-9.18,9.88-16.88,9.82-18.47-.14-36.94,0-55.4,0Zm5.65-9.36c4.51-.4,8.55-3.14,11.34-7.56,3.42-5.41,6.55-11,9.77-16.55a12.13,12.13,0,0,0,1.17-2.85c.86-3.11-.64-5.16-3.87-5.25s-5.94,1.29-8.49,3.15c-3.81,2.78-5.57,7-7.87,10.87s-4.76,7.86-6.73,12C63.11,135.91,64.81,138.38,69.59,138.34Z"/><path d="M381.83,147.65H325c-6.46,0-8.59-3.36-5.42-9,6.33-11.25,12.74-22.47,19.43-33.51,3.31-5.47,8.41-8.33,15.08-8.29,18.24.1,36.47,0,54.71.06,6.64,0,11.36-3.09,14.71-8.45,3.18-5.11,6.07-10.4,9-15.65,1.25-2.23,2.69-4.81.62-7s-4.89-1.31-7.35-.39a17.32,17.32,0,0,0-8.64,7.16c-1.54,2.4-2.9,4.91-4.34,7.38-3.75,6.42-9.2,9.73-16.77,9.66-12.29-.12-24.58,0-36.87,0-7.22,0-9.22-3.55-5.57-9.87,3-5.22,6-10.44,9.14-15.58,3.56-5.86,8.78-8.95,15.73-8.95q54.83,0,109.65,0a40.38,40.38,0,0,1,6.62.42A4,4,0,0,1,498,61.24c-2.05,4.44-4.38,8.76-6.83,13C479,95.31,466.68,116.3,454.58,137.4c-4,7-9.63,10.42-17.8,10.33-18.31-.2-36.63-.06-54.94-.06Zm6.51-9.37c3.31-.22,7.33-2.56,9.92-6.5,4-6,7.38-12.36,10.93-18.62,1-1.75,1.65-3.84.21-5.6s-3.84-1.74-6-1.19a16.81,16.81,0,0,0-10.58,8.21c-2.78,4.79-5.64,9.54-8.4,14.35a19,19,0,0,0-1.86,4.09C381.6,136.53,383.06,138.34,388.34,138.28Z"/></g></g></svg>