<svg xmlns="http://www.w3.org/2000/svg" viewBox="0 0 500 161.25"><title>Asset 1</title><g id="Layer_2" data-name="Layer 2"><g id="Layer_1-2" data-name="Layer 1"><path d="M278.23,115.59a20.81,20.81,0,0,1-.82,2.44c-3.59,7.56-10,10.59-18,11.23-1.09.09-2.21,0-3.3.07-13.69,1.17-21.29-9.08-21.36-20.8q-.12-18.28-.54-36.56c-.15-6.68-.56-13.35-.89-20a17.59,17.59,0,0,0-.61-2.7,10.94,10.94,0,0,0-2.66,1.54c-3.23,3.64-6.36,7.06-6.24,12.68.44,20.48.39,41,.64,61.45,0,2.48-.69,3.14-3.12,3.11-10-.14-20-.07-30-.1-.82,0-1.65-.1-2.69-.17V51.35a13.84,13.84,0,0,0-2.49,1.77c-2.65,3.28-5.33,6.55-7.75,10-.64.9-.54,2.42-.54,3.65q-.15,29.84-.24,59.68c0,.42-.08.83-.15,1.5h-34l-1.13-75.78-.66-.31c-.95,1.3-1.86,2.62-2.85,3.88A55.17,55.17,0,0,1,135.33,60c-.34.35-1.17.24-1.77.34,0-.54-.28-1.23,0-1.61,2-3.27,3.62-7,6.34-9.61,6.5-6.18,14.49-8.66,23.4-6.63,7.48,1.7,12,6.61,13.54,14.13a8.53,8.53,0,0,0,.61,1.23c1.47-1.44,2.89-2.66,4.1-4a29.27,29.27,0,0,1,19-10.28c8.7-1.1,15.82,1.62,21,8.85.39.54.82,1.06,1.48,1.91,1-1.17,2-2.21,2.88-3.25a28.87,28.87,0,0,1,38.4-4.4c3.86,2.79,5.57,6.8,5.89,11.33.49,7,.91,14,.94,21,.05,12.36-.22,24.72-.35,37.07a4,4,0,0,0,0,1.26c.26.74.5,1.68,1.06,2.05.34.22,1.41-.32,1.92-.78,1.28-1.12,2.44-2.38,3.65-3.59Z"/><path d="M131.46,121.58c.92-1.22,1.88-2.4,2.74-3.65a34.39,34.39,0,0,1,2.47-3.8c.47-.52,1.6-.44,2.44-.64,0,.77.35,1.67.07,2.29-3.66,8.13-9.59,13.44-18.73,14.41-7.12.76-14-.09-20.37-3.7s-8.83-9.66-9.51-16.43C89.77,102,89.42,93.88,89,85.78c-.3-6.59-.33-13.19-.53-19.78a14.15,14.15,0,0,0-.77-2.77,21.43,21.43,0,0,0-2.21,2.35q-4,6.14-8,12.36a14.75,14.75,0,0,0-1.66,12.65c2.56,8.55,4.28,17.24,3.73,26.23a45.11,45.11,0,0,1-1,7c-.74,3.33-2.16,4.65-4.71,4.84s-5.8-1.58-6.27-4.52a81.59,81.59,0,0,1-1.25-15.07,70.51,70.51,0,0,1,4.12-22.35,4.24,4.24,0,0,0,.25-2.24c-1.08-4.76-3.41-8.89-6.71-13.26-.55,1.46-.94,2.34-1.22,3.26-4,13.09-8.11,26.14-11.8,39.31-2.13,7.58-5.82,13.07-14,15-8.83,2.1-16.81,1.12-23.68-5.16C7.3,118.08,4.07,110.89,2,103.07A61.25,61.25,0,0,1,2.55,70C6.39,56.75,16.12,49.38,29.91,48.68c10.81-.55,20.18,2.54,28,10.16,1.44,1.41,3,2.7,4.85,4.36.39-1.12.71-1.92,1-2.75C67.87,46.36,72,32.27,76.25,18.19a53,53,0,0,1,2.31-5.89C81.81,4.86,87.68.68,95.59.12a60,60,0,0,1,15.34,1.05c9,1.72,13.2,8.35,14.84,16.69a91.34,91.34,0,0,1,1.49,14.62c.66,20.64,1.06,41.28,1.71,61.92.27,8.45.93,16.89,1.42,25.34a11,11,0,0,0,.27,1.44Zm-97-51c.39,4.85.44,8.43,1,11.92,1.18,7.41,2.49,14.81,4,22.16a13.62,13.62,0,0,0,2.95,5.5c1.79,2.17,3.58,2,5.23-.23a19.31,19.31,0,0,0,3-5.54Q56,86.82,60.87,69.12a5.4,5.4,0,0,0-.78-4.22,28.42,28.42,0,0,0-13.26-9.42c-5.33-1.74-9.32.25-10.81,5.66A73,73,0,0,0,34.51,70.6ZM73,80.43c.84-1.28,1.45-2.25,2.11-3.2,3.46-5,6.73-10.14,10.49-14.91A9.17,9.17,0,0,0,88,56c-.43-12.35-.77-24.69-1.21-37-.13-3.86-.45-7.71-.68-11.56l-.75-.41a22.71,22.71,0,0,0-3.57,3.55,20,20,0,0,0-2.12,5.12C75.23,30.33,71,45.11,66.38,59.77c-1.51,4.79-1.89,8.92,1.76,12.9,1.34,1.46,2.07,3.47,3.11,5.21C71.72,78.64,72.27,79.36,73,80.43ZM73.35,90l-.95.07a3.19,3.19,0,0,0-.48.79c-2,7.69-3.74,15.45-3.22,23.44a38.72,38.72,0,0,0,2.24,10c.93,2.68,2.65,2.72,4,.21a11.32,11.32,0,0,0,1.69-5.46c-.2-6.46-.64-12.93-1.31-19.36A90.7,90.7,0,0,0,73.35,90Z"/><path d="M376.93,118.3c8.38,0,16.76-.06,25.14,0,10.34.09,16.09,5.63,16.44,16.07A67.53,67.53,0,0,1,417.9,147c-1.3,8.31-6.13,13.36-14.43,13.87a233.46,233.46,0,0,1-28.61-.16c-6.52-.4-8.72-5.06-6.14-11,1.4-3.25,1.23-3.55-2.32-3.65-6.42-.19-12.87-.07-19.27-.55-10.58-.81-16.93-8.14-15.73-18.07.88-7.24,5.08-12.39,11.32-15.92,4.68-2.65,4.72-2.59.15-5.67a34.31,34.31,0,0,1,13.4-62.07,27.18,27.18,0,0,1,2.78-.22c4.09-.26,4.2-.25,4.59-4.39.5-5.3.6-10.64,1.24-15.93.77-6.35,5.53-9.83,11.83-8.81a16.48,16.48,0,0,1,6.18,1.9c3.93,2.51,4.81,6.88,3.11,12.77-1.16,4-3.76,6.13-8.54,6.09a37.85,37.85,0,0,1-8.59-1.49c-1.6-.39-2.27-.08-2.26,1.55,0,.68,0,1.35.07,2,.15,4.53,1.2,5.61,5.78,5.85,7.83.41,15.26,2.07,21.53,7.13,11.15,9,14.55,25.42,8,39.23-6.3,13.2-17.29,19.44-31.51,20.47-5.48.4-11,.32-16.48.55a11.17,11.17,0,0,0-8.31,4.29c-1.32,1.59-.93,2.58,1.11,3a21.43,21.43,0,0,0,4.27.48c8.63,0,17.27,0,25.9,0Zm-5.49-42h0q0-7,0-14c0-4.57,0-9.14,0-13.72,0-2.36-1-3.22-3.53-3.24-3.15,0-4.3.79-4.33,3.15,0,2.54,0,5.08,0,7.62q-.15,23.37-.3,46.73c0,3,1.34,4,5.08,3.93,2.76,0,3.07-.38,3.08-3.58Q371.44,89.75,371.44,76.29Zm16.82,70.06c-4.06.2-8.39.22-12.65.71-2.8.32-4.45,3.35-4.29,6.85.12,2.65,1.12,3.73,4.55,3.94,7.08.44,14.17.7,21.26.93a29.94,29.94,0,0,0,5.56-.44c3-.48,5-3.48,4.82-7-.17-3-1.36-4.06-5.07-4.26C397.8,146.79,393.15,146.58,388.26,146.35Z"/><path d="M458.31,50.16l-.49-6.7h35.55l-1.11,76.28,7.07-6.28.67.51a18.48,18.48,0,0,1-1,2.64c-3.22,6-8.63,8.7-15,9.51a46.73,46.73,0,0,1-10.1-.12c-6.48-.61-10.93-4.52-14.52-9.61l-1.9-2.7c-1.11,1.54-2.06,2.76-2.91,4-3.92,6-9.44,9-16.61,9a9.65,9.65,0,0,1-3.43-.7c-15.2-6.16-24-17.41-25.28-33.74-1.26-15.91,3.38-30.16,14.8-41.65,9.57-9.63,22.45-10.95,33-1.11A7.92,7.92,0,0,0,458.31,50.16ZM447.19,84.68q0,15.6,0,31.2a4.28,4.28,0,0,0,.09,1.51c.26.67.61,1.6,1.13,1.77a2.2,2.2,0,0,0,1.88-.84c1.67-2.52,3.28-5.1,4.73-7.76a11.07,11.07,0,0,0,1.72-4.65q.44-20.16.52-40.32a96.17,96.17,0,0,0-1-10.33,5.85,5.85,0,0,0-3.7-4.77c-3-1.43-5.4-.5-5.4,2.74"/><path d="M322,121.28c3.31-1.59,4.49-4.86,8.29-5-1.68,4-3.94,7.08-7.2,8.91-7.82,4.38-16.23,5.64-25,3a20.69,20.69,0,0,1-10.19-6.82,15.83,15.83,0,0,1-4-10.61c.17-21.07.09-42.13.09-63.2,0-1,0-2,0-3.44h37.65c0,12.62-.11,25.44,0,38.27S321,108,322,121.28Z"/><path d="M303.35,14.09c6.89,0,11.3,4.33,11.23,11-.06,6.41-4.4,10.72-10.72,10.64C297.06,35.63,292,30.63,292,24.07,292.07,18,296.58,14.06,303.35,14.09Z"/></g></g></svg>