<svg xmlns="http://www.w3.org/2000/svg" viewBox="0 0 500 146.89"><title>Asset 1</title><g id="Layer_2" data-name="Layer 2"><g id="Layer_1-2" data-name="Layer 1"><path d="M500,111.46c-21.39,19.55-46.41,29.19-74.07,33a201.7,201.7,0,0,1-41.24,1.42c-13.77-.94-27.08-4.46-40.38-8.05-14.55-3.94-29.14-7.86-43.89-10.9-15.71-3.23-31.73-3.43-47.73-2.27-27.09,2-52.48,9.79-76.57,22.16-.23.12-.49.16-1.1-.22,3.14-2.69,6.2-5.49,9.45-8a169.55,169.55,0,0,1,81.28-34.82c23.27-3.43,45.92-.62,68.35,5.57,16,4.42,32,9.14,48.08,13.1a170.77,170.77,0,0,0,58.09,4.31C460.71,124.64,480.65,120.45,500,111.46Z"/><path d="M73.15,50c.58.29,1.06.55,1.56.77,11.41,5.13,15.17,12.92,12.06,25-3.89,15.16-16.56,26.21-32.59,27-15.56.81-31.17.63-46.76.68-5.3,0-8-2.76-7.33-8,.74-6.23,2.19-12.39,3.52-18.54Q10.4,45.58,17.32,14.28c2-9.14,6.07-12.59,15.35-12.58,13.3,0,26.6.24,39.89.46A27.59,27.59,0,0,1,78.51,3C89.68,5.67,95.4,15.8,92.59,27.58c-2.11,8.84-7.39,15.16-15.15,19.58-1.32.75-2.68,1.44-4,2.17C73.36,49.36,73.35,49.49,73.15,50ZM20.92,88.3a5.43,5.43,0,0,0,1.38.48c9.27-.15,18.58.12,27.8-.64,7.3-.6,13.26-4.18,16.2-11.49,4-10,.38-16.85-10.36-17.85-8.54-.79-17.19-.42-25.78-.72-2.25-.08-3,.88-3.38,2.85-.86,4.4-1.89,8.77-2.83,13.15C22.93,78.81,21.94,83.53,20.92,88.3ZM42.62,44v.21c4.58-.22,9.16-.36,13.73-.69C63,43,68.44,40,71.25,33.88c4.38-9.62,1.84-15.49-8.43-16.44-8.16-.75-16.41-.56-24.62-.61-.73,0-1.92,1.18-2.12,2-1.77,7.52-3.3,15.09-5,22.62-.48,2.06.27,2.57,2.11,2.55C36.3,44,39.46,44,42.62,44Z"/><path d="M166.11,105.38A28.11,28.11,0,0,1,146.22,98c-5.87-5.46-8.17-12.54-8-20.22.43-16.4,6.24-30.5,19.65-40.61,10.68-8.06,22.92-10.39,35.9-7.77s20.82,12.52,20.75,26.52c-.07,13.26-4.33,25.21-13.43,35.08C192.22,100.64,181.08,105.42,166.11,105.38Zm30-46.74c0-1.05.05-2.11,0-3.15-.46-8.15-6-13.41-14.09-13.51-7-.09-12.62,2.92-16.83,8.32a40.22,40.22,0,0,0-8.4,28.17c.56,8.64,6.08,13.44,14.76,13.35,6.82-.07,12.08-3.29,16.22-8.41C193.53,76.21,195.73,67.71,196.07,58.64Z"/><path d="M441.39,41.39c2.24-2,3.76-3.37,5.34-4.69,8.1-6.75,17.32-9.7,27.77-7.62,9.12,1.82,14.31,8.08,13.77,17.33-.38,6.34-1.77,12.65-3,18.91-1.92,9.55-3.95,19.08-6.31,28.52a24.65,24.65,0,0,1-4.27,8.54c-2.18,2.89-5.68,3.39-9.16,2.81-3.75-.63-5.8-4.58-4.85-9.34.91-4.59,2-9.14,3-13.72,1.71-8.13,3.47-16.24,5-24.4a29.62,29.62,0,0,0,.35-6.86c-.23-5.24-3.13-8-8.38-8.27a20.55,20.55,0,0,0-20.53,14.05c-2.5,7.28-4,14.91-5.84,22.42C433,84.37,432,89.73,430.7,95c-1.6,6.73-6,10.49-11.92,10.3-3.63-.12-6.13-2.12-6.12-5.8A52.49,52.49,0,0,1,414,88.78q5.26-24.65,10.81-49.24a22.49,22.49,0,0,1,2.55-6.62c2.2-3.64,5.75-4.9,9.9-4.3,3.55.51,5.57,4.06,4.91,8.44C442,38.22,441.75,39.38,441.39,41.39Z"/><path d="M263.09,28.3c6.33,0,12.47.86,18.11,3.82,5,2.61,8.76,6.25,8.33,12.54a8.7,8.7,0,0,1-6.31,7.69c-4.43,1.21-6.95.34-9.45-3.27-.33-.47-.61-1-.91-1.46-4.94-8.21-14.28-10.27-22.38-4.94-2.45,1.61-4.19,3.75-4.11,6.8s2.4,4.81,4.94,5.74c4.57,1.66,9.33,2.79,13.91,4.41s9.09,3.09,13.2,5.41c6.52,3.68,8.61,9.35,6.87,16.6a31.52,31.52,0,0,1-6.49,12.64c-3.3,4-7.62,5.11-12.53,5.83-7.82,1.14-15.58,2.81-23.29,4.59-10.44,2.4-23-7.77-22.21-18.18a9.54,9.54,0,0,1,7.78-8.43c3.42-.54,5.42.54,6.87,3.75.35.78.65,1.59,1,2.39,2.35,6.13,6.79,9.19,13.37,9.38,4.48.13,8.82-.14,12.62-2.83a15.3,15.3,0,0,0,3-2.63c3.34-4.05,2.47-9.32-2.25-11.57-3.59-1.72-7.52-2.71-11.29-4.05-4.49-1.6-9.15-2.87-13.42-4.93-9.29-4.47-12-12.44-7.51-21.76,4.7-9.78,13.14-14.59,23.4-16.6C257.15,28.64,260.14,28.59,263.09,28.3Z"/><path d="M339.36,28.3c6.53,0,12.82,1,18.61,4.13,4.43,2.41,7.67,5.78,7.84,11.17a8.69,8.69,0,0,1-6.19,8.7c-4.5,1.35-7.18.39-9.86-3.53-.32-.47-.62-1-.91-1.46-4.81-8-14.83-10-22.51-4.39-5.4,3.92-5.07,9.61,1,12.21,4.54,1.93,9.48,2.92,14.16,4.53a84,84,0,0,1,12.23,4.83c7.23,3.86,9.64,10,7.45,17.91-3.45,12.44-12.37,18.7-24.33,21.77-5,1.28-9.43-.53-14.08-1.34-6.3-1.1-12.61-2.16-18.9-3.32-3.84-.71-5.26-3.88-6.36-7-2.58-7.37,1.68-14.4,8.54-14.5a5,5,0,0,1,5.09,3c.29.6.55,1.22.8,1.84a17.63,17.63,0,0,0,27.45,7.34c6-4.59,5.3-11.55-1.66-14.37-5-2-10.42-3.17-15.5-5.09A50.45,50.45,0,0,1,311,65.25c-6.38-4.49-7.67-11.48-4-19.22,4.71-9.94,13.18-14.81,23.56-16.83C333.43,28.63,336.42,28.59,339.36,28.3Z"/><path d="M99.47,96c.91-4.21,2.18-10.09,3.46-16,5-23,10-46.09,15-69.12,1.12-5.09,3.5-9.34,9.15-10.67,6-1.42,10.33,2.48,9.25,8.63-.82,4.7-1.9,9.36-2.92,14q-7.63,35-15.32,69.94a27,27,0,0,1-2.32,6.73,10,10,0,0,1-8.41,5.68C101.88,105.67,99.41,103.31,99.47,96Z"/><path d="M405.62,37.56c-1,4.82-2.31,11.08-3.67,17.32C399.11,67.93,396.3,81,393.34,94a21.39,21.39,0,0,1-2.72,6.55,9.86,9.86,0,0,1-8.93,4.78c-4.24-.06-7.06-2.45-6.77-6.73A89.07,89.07,0,0,1,377.09,86c3.38-15.67,6.84-31.33,10.27-47a13.58,13.58,0,0,1,5.45-8.79A10.2,10.2,0,0,1,401,28.75C404.13,29.41,405.74,32.15,405.62,37.56Z"/><path d="M411.9,7.67a11.28,11.28,0,0,1-10.75,11.24c-5.83.37-9.09-4.26-7.19-10.2A11.85,11.85,0,0,1,406.59,1C410,1.58,412,4,411.9,7.67Z"/></g></g></svg>