<svg xmlns="http://www.w3.org/2000/svg" viewBox="0 0 500 175.29"><title>Asset 1</title><g id="Layer_2" data-name="Layer 2"><g id="Layer_1-2" data-name="Layer 1"><path d="M52.91,120c-10,0-20.06.06-30.09,0-2.29,0-3.22.41-3.16,3,.12,5.88,0,11.73,2.81,17.17,5.27,10.19,13.55,15.61,25,15.38,11.32-.22,19.43-5.8,24.23-16,3.43-7.31,11.64-8.92,16.59-3.11A9.1,9.1,0,0,1,90,146.3c-8.24,20.51-29.49,32.12-51.72,28.24C17.46,170.92,1,152.33.33,131-.11,117-.12,102.86.35,88.81,1.14,65.18,20.8,46.17,44.89,45.13c23.78-1,45,16.33,48.14,39.49,1.2,8.77.61,17.59.47,26.38-.08,5.42-4.52,9-10.5,9C73,120.1,62.94,120,52.91,120ZM46.8,100.35h18c9.49,0,9.49,0,9.16-9.68A27.2,27.2,0,0,0,27.16,73.05c-6.65,6.94-7.8,15.43-7.51,24.49.07,2.3.69,2.89,2.92,2.85C30.65,100.28,38.73,100.35,46.8,100.35Z"/><path d="M445.68,126.25c-1.89,2.28-3.67,4.42-5.44,6.57-10.41,12.66-20.84,25.29-31.19,38-2.58,3.17-5.74,4.54-9.69,3.71a10,10,0,0,1-7.71-7.1c-1.31-3.94.35-7.1,2.79-10.08,12-14.67,23.9-29.43,36-44,2.06-2.47,1.76-3.74-.13-6C418.11,92.58,406,77.66,393.9,62.77c-3.23-4-3.56-8-1.05-11.79a10.43,10.43,0,0,1,11.94-4.13c2.12.66,3.44,2.2,4.77,3.83,11.44,14,22.95,28,34.32,42.08,1.52,1.88,2.14,1.86,3.63,0,11.38-14.07,22.87-28.06,34.32-42.07,4.07-5,10-5.84,14.46-2.11s4.91,9.7.85,14.63c-12.2,14.83-24.35,29.69-36.64,44.44-1.7,2-1.87,3.28-.07,5.44,12.23,14.64,24.28,29.43,36.43,44.14,2.77,3.36,4.12,6.91,2.3,11.15-3.08,7.2-11.64,8.61-16.63,2.6-11.17-13.46-22.22-27-33.33-40.52C448.13,129.17,447,127.86,445.68,126.25Z"/><path d="M116.34,126c0-11.5-.06-23,0-34.5a46.68,46.68,0,0,1,93.36-.07c.17,24,.05,48,0,71.93,0,6.43-4.07,10.83-9.87,10.84s-9.78-4.3-9.79-10.88c0-23.85,0-47.71,0-71.56a27.13,27.13,0,0,0-49.9-14.68C137,82,135.9,87.38,135.91,93.14q.07,35,0,70.1c0,6.41-3.78,10.73-9.37,11-5.79.25-10.15-3.94-10.19-10C116.3,151.45,116.34,138.73,116.34,126Z"/><path d="M327.41,125.79c0,13,.06,25.93,0,38.9a9.63,9.63,0,0,1-7.83,9.33,9.76,9.76,0,0,1-11-5.88,14.93,14.93,0,0,1-.66-5.79c0-23.24.06-46.49,0-69.73C307.79,78.08,298.36,67,284.51,65a26.68,26.68,0,0,0-30.8,26.51c-.11,23.85,0,47.71,0,71.56,0,5.7-2.78,9.68-7.46,10.82-6.64,1.62-12.18-3-12.19-10.33q-.05-36.15,0-72.3a49.9,49.9,0,0,1,.62-7.3C238.2,60.55,259.61,43.73,284,45.23c23.56,1.44,42.88,21.18,43.36,44.59.25,12,0,24,0,36Z"/><path d="M369,110.16c0,18,0,35.95,0,53.92,0,4.81-2.77,8.57-6.86,9.75a10,10,0,0,1-11-3.88,9.82,9.82,0,0,1-1.78-5.85q0-53.92,0-107.85c0-6,4.17-10.14,9.77-10.14A9.81,9.81,0,0,1,369,56.23C369.09,74.21,369,92.18,369,110.16Z"/><path d="M369,14.27c0,1.22,0,2.44,0,3.66-.22,5.67-4.3,9.78-9.71,9.81a9.92,9.92,0,0,1-9.92-9.66c-.11-2.68-.12-5.37,0-8a11,11,0,0,1,9.15-10c4.3-.52,9.94,4.55,10.42,9.48.15,1.57,0,3.17,0,4.75Z"/></g></g></svg>